<mxfile host="app.diagrams.net" modified="2023-06-07T01:46:25.002Z" agent="Mozilla/5.0 (Macintosh; Intel Mac OS X 10_15_7) AppleWebKit/537.36 (KHTML, like Gecko) Chrome/114.0.0.0 Safari/537.36" version="21.1.4" etag="QczHoG_yw8aaKDRIIDdm" type="github">
  <diagram name="第 1 页" id="-Hoc8lBkHACQUmE1CC9R">
    <mxGraphModel>
      <root>
        <mxCell id="0" />
        <mxCell id="1" parent="0" />
      </root>
    </mxGraphModel>
  </diagram>
</mxfile>
